<?xml version="1.0" encoding="utf-8"?>
<svg xmlns="http://www.w3.org/2000/svg" xmlns:xlink="http://www.w3.org/1999/xlink" width="1200" height="800" viewBox="0 0 4800 3200">
<defs>
  <clipPath id="clip170">
    <rect x="0" y="0" width="4800" height="3200"/>
  </clipPath>
</defs>
<path clip-path="url(#clip170)" d="M0 3200 L4800 3200 L4800 0 L0 0  Z" fill="#ffffff" fill-rule="evenodd" fill-opacity="1"/>
<defs>
  <clipPath id="clip171">
    <rect x="414" y="246" width="4229" height="2692"/>
  </clipPath>
</defs>
<path clip-path="url(#clip170)" d="M483.436 2912.89 L4642.52 2912.89 L4642.52 246.925 L483.436 246.925  Z" fill="#ffffff" fill-rule="evenodd" fill-opacity="1"/>
<defs>
  <clipPath id="clip172">
    <rect x="483" y="246" width="4160" height="2667"/>
  </clipPath>
</defs>
<polyline clip-path="url(#clip172)" style="stroke:#000000; stroke-linecap:round; stroke-linejoin:round; stroke-width:4; stroke-opacity:0.25; fill:none" stroke-dasharray="2, 4" points="601.146,2912.89 601.146,246.925 "/>
<polyline clip-path="url(#clip172)" style="stroke:#000000; stroke-linecap:round; stroke-linejoin:round; stroke-width:4; stroke-opacity:0.25; fill:none" stroke-dasharray="2, 4" points="1225.62,2912.89 1225.62,246.925 "/>
<polyline clip-path="url(#clip172)" style="stroke:#000000; stroke-linecap:round; stroke-linejoin:round; stroke-width:4; stroke-opacity:0.25; fill:none" stroke-dasharray="2, 4" points="1850.09,2912.89 1850.09,246.925 "/>
<polyline clip-path="url(#clip172)" style="stroke:#000000; stroke-linecap:round; stroke-linejoin:round; stroke-width:4; stroke-opacity:0.25; fill:none" stroke-dasharray="2, 4" points="2474.56,2912.89 2474.56,246.925 "/>
<polyline clip-path="url(#clip172)" style="stroke:#000000; stroke-linecap:round; stroke-linejoin:round; stroke-width:4; stroke-opacity:0.25; fill:none" stroke-dasharray="2, 4" points="3099.03,2912.89 3099.03,246.925 "/>
<polyline clip-path="url(#clip172)" style="stroke:#000000; stroke-linecap:round; stroke-linejoin:round; stroke-width:4; stroke-opacity:0.25; fill:none" stroke-dasharray="2, 4" points="3723.5,2912.89 3723.5,246.925 "/>
<polyline clip-path="url(#clip172)" style="stroke:#000000; stroke-linecap:round; stroke-linejoin:round; stroke-width:4; stroke-opacity:0.25; fill:none" stroke-dasharray="2, 4" points="4347.97,2912.89 4347.97,246.925 "/>
<polyline clip-path="url(#clip172)" style="stroke:#000000; stroke-linecap:round; stroke-linejoin:round; stroke-width:4; stroke-opacity:0.25; fill:none" stroke-dasharray="2, 4" points="601.146,2912.89 601.146,246.925 "/>
<polyline clip-path="url(#clip172)" style="stroke:#000000; stroke-linecap:round; stroke-linejoin:round; stroke-width:4; stroke-opacity:0.25; fill:none" stroke-dasharray="2, 4" points="1225.62,2912.89 1225.62,246.925 "/>
<polyline clip-path="url(#clip172)" style="stroke:#000000; stroke-linecap:round; stroke-linejoin:round; stroke-width:4; stroke-opacity:0.25; fill:none" stroke-dasharray="2, 4" points="1850.09,2912.89 1850.09,246.925 "/>
<polyline clip-path="url(#clip172)" style="stroke:#000000; stroke-linecap:round; stroke-linejoin:round; stroke-width:4; stroke-opacity:0.25; fill:none" stroke-dasharray="2, 4" points="2474.56,2912.89 2474.56,246.925 "/>
<polyline clip-path="url(#clip172)" style="stroke:#000000; stroke-linecap:round; stroke-linejoin:round; stroke-width:4; stroke-opacity:0.25; fill:none" stroke-dasharray="2, 4" points="3099.03,2912.89 3099.03,246.925 "/>
<polyline clip-path="url(#clip172)" style="stroke:#000000; stroke-linecap:round; stroke-linejoin:round; stroke-width:4; stroke-opacity:0.25; fill:none" stroke-dasharray="2, 4" points="3723.5,2912.89 3723.5,246.925 "/>
<polyline clip-path="url(#clip172)" style="stroke:#000000; stroke-linecap:round; stroke-linejoin:round; stroke-width:4; stroke-opacity:0.25; fill:none" stroke-dasharray="2, 4" points="4347.97,2912.89 4347.97,246.925 "/>
<polyline clip-path="url(#clip172)" style="stroke:#000000; stroke-linecap:round; stroke-linejoin:round; stroke-width:4; stroke-opacity:0.25; fill:none" stroke-dasharray="2, 4" points="483.436,2837.59 4642.52,2837.59 "/>
<polyline clip-path="url(#clip172)" style="stroke:#000000; stroke-linecap:round; stroke-linejoin:round; stroke-width:4; stroke-opacity:0.25; fill:none" stroke-dasharray="2, 4" points="483.436,2208.75 4642.52,2208.75 "/>
<polyline clip-path="url(#clip172)" style="stroke:#000000; stroke-linecap:round; stroke-linejoin:round; stroke-width:4; stroke-opacity:0.25; fill:none" stroke-dasharray="2, 4" points="483.436,1579.91 4642.52,1579.91 "/>
<polyline clip-path="url(#clip172)" style="stroke:#000000; stroke-linecap:round; stroke-linejoin:round; stroke-width:4; stroke-opacity:0.25; fill:none" stroke-dasharray="2, 4" points="483.436,951.062 4642.52,951.062 "/>
<polyline clip-path="url(#clip172)" style="stroke:#000000; stroke-linecap:round; stroke-linejoin:round; stroke-width:4; stroke-opacity:0.25; fill:none" stroke-dasharray="2, 4" points="483.436,322.219 4642.52,322.219 "/>
<polyline clip-path="url(#clip172)" style="stroke:#000000; stroke-linecap:round; stroke-linejoin:round; stroke-width:4; stroke-opacity:0.25; fill:none" stroke-dasharray="2, 4" points="483.436,2837.59 4642.52,2837.59 "/>
<polyline clip-path="url(#clip172)" style="stroke:#000000; stroke-linecap:round; stroke-linejoin:round; stroke-width:4; stroke-opacity:0.25; fill:none" stroke-dasharray="2, 4" points="483.436,2208.75 4642.52,2208.75 "/>
<polyline clip-path="url(#clip172)" style="stroke:#000000; stroke-linecap:round; stroke-linejoin:round; stroke-width:4; stroke-opacity:0.25; fill:none" stroke-dasharray="2, 4" points="483.436,1579.91 4642.52,1579.91 "/>
<polyline clip-path="url(#clip172)" style="stroke:#000000; stroke-linecap:round; stroke-linejoin:round; stroke-width:4; stroke-opacity:0.25; fill:none" stroke-dasharray="2, 4" points="483.436,951.062 4642.52,951.062 "/>
<polyline clip-path="url(#clip172)" style="stroke:#000000; stroke-linecap:round; stroke-linejoin:round; stroke-width:4; stroke-opacity:0.25; fill:none" stroke-dasharray="2, 4" points="483.436,322.219 4642.52,322.219 "/>
<polyline clip-path="url(#clip170)" style="stroke:#000000; stroke-linecap:round; stroke-linejoin:round; stroke-width:4; stroke-opacity:1; fill:none" points="483.436,2912.89 4642.52,2912.89 "/>
<polyline clip-path="url(#clip170)" style="stroke:#000000; stroke-linecap:round; stroke-linejoin:round; stroke-width:4; stroke-opacity:1; fill:none" points="483.436,246.925 4642.52,246.925 "/>
<polyline clip-path="url(#clip170)" style="stroke:#000000; stroke-linecap:round; stroke-linejoin:round; stroke-width:4; stroke-opacity:1; fill:none" points="601.146,2912.89 601.146,2893.99 "/>
<polyline clip-path="url(#clip170)" style="stroke:#000000; stroke-linecap:round; stroke-linejoin:round; stroke-width:4; stroke-opacity:1; fill:none" points="1225.62,2912.89 1225.62,2893.99 "/>
<polyline clip-path="url(#clip170)" style="stroke:#000000; stroke-linecap:round; stroke-linejoin:round; stroke-width:4; stroke-opacity:1; fill:none" points="1850.09,2912.89 1850.09,2893.99 "/>
<polyline clip-path="url(#clip170)" style="stroke:#000000; stroke-linecap:round; stroke-linejoin:round; stroke-width:4; stroke-opacity:1; fill:none" points="2474.56,2912.89 2474.56,2893.99 "/>
<polyline clip-path="url(#clip170)" style="stroke:#000000; stroke-linecap:round; stroke-linejoin:round; stroke-width:4; stroke-opacity:1; fill:none" points="3099.03,2912.89 3099.03,2893.99 "/>
<polyline clip-path="url(#clip170)" style="stroke:#000000; stroke-linecap:round; stroke-linejoin:round; stroke-width:4; stroke-opacity:1; fill:none" points="3723.5,2912.89 3723.5,2893.99 "/>
<polyline clip-path="url(#clip170)" style="stroke:#000000; stroke-linecap:round; stroke-linejoin:round; stroke-width:4; stroke-opacity:1; fill:none" points="4347.97,2912.89 4347.97,2893.99 "/>
<polyline clip-path="url(#clip170)" style="stroke:#000000; stroke-linecap:round; stroke-linejoin:round; stroke-width:4; stroke-opacity:1; fill:none" points="601.146,246.925 601.146,265.823 "/>
<polyline clip-path="url(#clip170)" style="stroke:#000000; stroke-linecap:round; stroke-linejoin:round; stroke-width:4; stroke-opacity:1; fill:none" points="1225.62,246.925 1225.62,265.823 "/>
<polyline clip-path="url(#clip170)" style="stroke:#000000; stroke-linecap:round; stroke-linejoin:round; stroke-width:4; stroke-opacity:1; fill:none" points="1850.09,246.925 1850.09,265.823 "/>
<polyline clip-path="url(#clip170)" style="stroke:#000000; stroke-linecap:round; stroke-linejoin:round; stroke-width:4; stroke-opacity:1; fill:none" points="2474.56,246.925 2474.56,265.823 "/>
<polyline clip-path="url(#clip170)" style="stroke:#000000; stroke-linecap:round; stroke-linejoin:round; stroke-width:4; stroke-opacity:1; fill:none" points="3099.03,246.925 3099.03,265.823 "/>
<polyline clip-path="url(#clip170)" style="stroke:#000000; stroke-linecap:round; stroke-linejoin:round; stroke-width:4; stroke-opacity:1; fill:none" points="3723.5,246.925 3723.5,265.823 "/>
<polyline clip-path="url(#clip170)" style="stroke:#000000; stroke-linecap:round; stroke-linejoin:round; stroke-width:4; stroke-opacity:1; fill:none" points="4347.97,246.925 4347.97,265.823 "/>
<g clip-path="url(#clip170)">
<text style="fill:#000000; fill-opacity:1; font-family:Century Gothic,CenturyGothic,AppleGothic,sans-serif; font-size:116px; text-anchor:middle;" transform="rotate(0, 601.146, 3055.7)" x="601.146" y="3055.7">0</text>
</g>
<g clip-path="url(#clip170)">
<text style="fill:#000000; fill-opacity:1; font-family:Century Gothic,CenturyGothic,AppleGothic,sans-serif; font-size:116px; text-anchor:middle;" transform="rotate(0, 1225.62, 3055.7)" x="1225.62" y="3055.7">1</text>
</g>
<g clip-path="url(#clip170)">
<text style="fill:#000000; fill-opacity:1; font-family:Century Gothic,CenturyGothic,AppleGothic,sans-serif; font-size:116px; text-anchor:middle;" transform="rotate(0, 1850.09, 3055.7)" x="1850.09" y="3055.7">2</text>
</g>
<g clip-path="url(#clip170)">
<text style="fill:#000000; fill-opacity:1; font-family:Century Gothic,CenturyGothic,AppleGothic,sans-serif; font-size:116px; text-anchor:middle;" transform="rotate(0, 2474.56, 3055.7)" x="2474.56" y="3055.7">3</text>
</g>
<g clip-path="url(#clip170)">
<text style="fill:#000000; fill-opacity:1; font-family:Century Gothic,CenturyGothic,AppleGothic,sans-serif; font-size:116px; text-anchor:middle;" transform="rotate(0, 3099.03, 3055.7)" x="3099.03" y="3055.7">4</text>
</g>
<g clip-path="url(#clip170)">
<text style="fill:#000000; fill-opacity:1; font-family:Century Gothic,CenturyGothic,AppleGothic,sans-serif; font-size:116px; text-anchor:middle;" transform="rotate(0, 3723.5, 3055.7)" x="3723.5" y="3055.7">5</text>
</g>
<g clip-path="url(#clip170)">
<text style="fill:#000000; fill-opacity:1; font-family:Century Gothic,CenturyGothic,AppleGothic,sans-serif; font-size:116px; text-anchor:middle;" transform="rotate(0, 4347.97, 3055.7)" x="4347.97" y="3055.7">6</text>
</g>
<polyline clip-path="url(#clip170)" style="stroke:#000000; stroke-linecap:round; stroke-linejoin:round; stroke-width:4; stroke-opacity:1; fill:none" points="483.436,2912.89 483.436,246.925 "/>
<polyline clip-path="url(#clip170)" style="stroke:#000000; stroke-linecap:round; stroke-linejoin:round; stroke-width:4; stroke-opacity:1; fill:none" points="4642.52,2912.89 4642.52,246.925 "/>
<polyline clip-path="url(#clip170)" style="stroke:#000000; stroke-linecap:round; stroke-linejoin:round; stroke-width:4; stroke-opacity:1; fill:none" points="483.436,2837.59 502.333,2837.59 "/>
<polyline clip-path="url(#clip170)" style="stroke:#000000; stroke-linecap:round; stroke-linejoin:round; stroke-width:4; stroke-opacity:1; fill:none" points="483.436,2208.75 502.333,2208.75 "/>
<polyline clip-path="url(#clip170)" style="stroke:#000000; stroke-linecap:round; stroke-linejoin:round; stroke-width:4; stroke-opacity:1; fill:none" points="483.436,1579.91 502.333,1579.91 "/>
<polyline clip-path="url(#clip170)" style="stroke:#000000; stroke-linecap:round; stroke-linejoin:round; stroke-width:4; stroke-opacity:1; fill:none" points="483.436,951.062 502.333,951.062 "/>
<polyline clip-path="url(#clip170)" style="stroke:#000000; stroke-linecap:round; stroke-linejoin:round; stroke-width:4; stroke-opacity:1; fill:none" points="483.436,322.219 502.333,322.219 "/>
<polyline clip-path="url(#clip170)" style="stroke:#000000; stroke-linecap:round; stroke-linejoin:round; stroke-width:4; stroke-opacity:1; fill:none" points="4642.52,2837.59 4623.62,2837.59 "/>
<polyline clip-path="url(#clip170)" style="stroke:#000000; stroke-linecap:round; stroke-linejoin:round; stroke-width:4; stroke-opacity:1; fill:none" points="4642.52,2208.75 4623.62,2208.75 "/>
<polyline clip-path="url(#clip170)" style="stroke:#000000; stroke-linecap:round; stroke-linejoin:round; stroke-width:4; stroke-opacity:1; fill:none" points="4642.52,1579.91 4623.62,1579.91 "/>
<polyline clip-path="url(#clip170)" style="stroke:#000000; stroke-linecap:round; stroke-linejoin:round; stroke-width:4; stroke-opacity:1; fill:none" points="4642.52,951.062 4623.62,951.062 "/>
<polyline clip-path="url(#clip170)" style="stroke:#000000; stroke-linecap:round; stroke-linejoin:round; stroke-width:4; stroke-opacity:1; fill:none" points="4642.52,322.219 4623.62,322.219 "/>
<g clip-path="url(#clip170)">
<text style="fill:#000000; fill-opacity:1; font-family:Century Gothic,CenturyGothic,AppleGothic,sans-serif; font-size:116px; text-anchor:middle;" transform="rotate(0, 296.08, 2880.59)" x="296.08" y="2880.59">−1.0</text>
</g>
<g clip-path="url(#clip170)">
<text style="fill:#000000; fill-opacity:1; font-family:Century Gothic,CenturyGothic,AppleGothic,sans-serif; font-size:116px; text-anchor:middle;" transform="rotate(0, 296.08, 2251.75)" x="296.08" y="2251.75">−0.5</text>
</g>
<g clip-path="url(#clip170)">
<text style="fill:#000000; fill-opacity:1; font-family:Century Gothic,CenturyGothic,AppleGothic,sans-serif; font-size:116px; text-anchor:middle;" transform="rotate(0, 330.582, 1622.91)" x="330.582" y="1622.91">0.0</text>
</g>
<g clip-path="url(#clip170)">
<text style="fill:#000000; fill-opacity:1; font-family:Century Gothic,CenturyGothic,AppleGothic,sans-serif; font-size:116px; text-anchor:middle;" transform="rotate(0, 330.582, 994.062)" x="330.582" y="994.062">0.5</text>
</g>
<g clip-path="url(#clip170)">
<text style="fill:#000000; fill-opacity:1; font-family:Century Gothic,CenturyGothic,AppleGothic,sans-serif; font-size:116px; text-anchor:middle;" transform="rotate(0, 330.582, 365.219)" x="330.582" y="365.219">1.0</text>
</g>
<g clip-path="url(#clip170)">
<text style="fill:#000000; fill-opacity:1; font-family:Century Gothic,CenturyGothic,AppleGothic,sans-serif; font-size:106px; text-anchor:middle;" transform="rotate(0, 2562.98, 93.6)" x="2562.98" y="93.6">Векторный график (SVG)</text>
</g>
<polyline clip-path="url(#clip172)" style="stroke:#0072b2; stroke-linecap:round; stroke-linejoin:round; stroke-width:8; stroke-opacity:1; fill:none" points="601.146,1579.91 640.779,1500.14 680.412,1420.69 720.045,1341.89 759.678,1264.04 799.311,1187.47 838.944,1112.47 878.576,1039.36 918.209,968.422 957.842,899.949 997.475,834.213 1037.11,771.48 1076.74,712.002 1116.37,656.019 1156.01,603.756 1195.64,555.424 1235.27,511.217 1274.91,471.313 1314.54,435.873 1354.17,405.04 1393.81,378.937 1433.44,357.671 1473.07,341.326 1512.7,329.968 1552.34,323.643 1591.97,322.377 1631.6,326.174 1671.24,335.02 1710.87,348.879 1750.5,367.694 1790.13,391.39 1829.77,419.873 1869.4,453.026 1909.03,490.717 1948.67,532.793 1988.3,579.086 2027.93,629.409 2067.57,683.559 2107.2,741.319 2146.83,802.455 2186.46,866.722 2226.1,933.86 2265.73,1003.6 2305.36,1075.66 2345,1149.75 2384.63,1225.57 2424.26,1302.82 2463.9,1381.19 2503.53,1460.35 2543.16,1540 2582.79,1619.81 2622.43,1699.46 2662.06,1778.62 2701.69,1856.99 2741.33,1934.24 2780.96,2010.06 2820.59,2084.15 2860.23,2156.21 2899.86,2225.95 2939.49,2293.09 2979.12,2357.36 3018.76,2418.49 3058.39,2476.25 3098.02,2530.4 3137.66,2580.73 3177.29,2627.02 3216.92,2669.09 3256.55,2706.79 3296.19,2739.94 3335.82,2768.42 3375.45,2792.12 3415.09,2810.93 3454.72,2824.79 3494.35,2833.64 3533.99,2837.43 3573.62,2836.17 3613.25,2829.84 3652.88,2818.49 3692.52,2802.14 3732.15,2780.87 3771.78,2754.77 3811.42,2723.94 3851.05,2688.5 3890.68,2648.59 3930.32,2604.39 3969.95,2556.06 4009.58,2503.79 4049.21,2447.81 4088.85,2388.33 4128.48,2325.6 4168.11,2259.86 4207.75,2191.39 4247.38,2120.45 4287.01,2047.34 4326.64,1972.35 4366.28,1895.77 4405.91,1817.92 4445.54,1739.12 4485.18,1659.67 4524.81,1579.91 "/>
<path clip-path="url(#clip170)" d="M3918.72 483.184 L4503.88 483.184 L4503.88 335.791 L3918.72 335.791  Z" fill="#ffffff" fill-rule="evenodd" fill-opacity="1"/>
<polyline clip-path="url(#clip170)" style="stroke:#000000; stroke-linecap:round; stroke-linejoin:round; stroke-width:4; stroke-opacity:1; fill:none" points="3918.72,483.184 4503.88,483.184 4503.88,335.791 3918.72,335.791 3918.72,483.184 "/>
<polyline clip-path="url(#clip170)" style="stroke:#0072b2; stroke-linecap:round; stroke-linejoin:round; stroke-width:12; stroke-opacity:1; fill:none" points="3964.94,409.487 4242.21,409.487 "/>
<g clip-path="url(#clip170)">
<text style="fill:#000000; fill-opacity:1; font-family:Century Gothic,CenturyGothic,AppleGothic,sans-serif; font-size:70px; text-anchor:start;" transform="rotate(0, 4288.42, 435.487)" x="4288.42" y="435.487">sin(x)</text>
</g>
</svg>
